<svg xmlns="http://www.w3.org/2000/svg" viewBox="0 0 50 50"><defs><style>.cls-1{fill:#f4e7e1;}.cls-2{fill:#bae2f0;}.cls-3{fill:#9e7652;}.cls-4{fill:#734b35;}.cls-5{fill:#523626;}.cls-6{fill:#e8ddce;}.cls-7{fill:#7f5c40;}.cls-8{fill:#725941;}.cls-9{fill:#4d4d4d;}</style></defs><title>Girl3-1</title><g id="Layer_2" data-name="Layer 2"><g id="Layer_1-2" data-name="Layer 1"><path class="cls-1" d="M30.26,32.22c.41-1,.83-.43.76-.24"/><circle class="cls-2" cx="25" cy="25" r="25"/><path d="M17.22,32.66C13,24,14.83,8,26.79,10.24c5.69.36,7.74,4.21,7.74,4.21s2,11.66,1.36,13.56,3.79,4.88,2.81,7.44a17.74,17.74,0,0,1-1.42,3.19l-7.73-1.41L18,35.78Z"/><path class="cls-3" d="M20.94,31.73c.4-.06,7.27-.2,8.08,1s-.09,1.62-.09,1.62l-8.59-.46S20.57,31.79,20.94,31.73Z"/><path d="M38,37.12c1.65-3.68-1.46-5.91-1.54-9.34S37.59,15.66,34,13.26s-1.86,1.64-1.86,1.64a5.07,5.07,0,0,1,2.69,3.35,76.56,76.56,0,0,1,.28,7.91l.87,7Z"/><path class="cls-4" d="M34.71,15.12c-.17-1.83-1.19-.25-4.6.79s-6.47-1.69-5.91-.47-1.49,3.1-2,3.1S19.7,17,18.54,19.76c-.51,3.94,2.38,4.13,2.38,4.13v3.57L21,33h7.65V30.56s.41-.06,1.14-.24l.13,0a14,14,0,0,0,2.45-2.6c.44-.55,1.21.23.77.78l-.49.59c.08-.05.18-.1.26-.16a.47.47,0,0,1,.35-.08C36.06,25.42,34.87,16.83,34.71,15.12Z"/><rect class="cls-4" x="20.96" y="22.93" width="7.74" height="14.29"/><path class="cls-5" d="M28.7,30.54a24.85,24.85,0,0,1-4.6-3.14s2.3,3.82,4.55,4.71C28.71,31.46,28.7,30.54,28.7,30.54Z"/><path class="cls-6" d="M30.26,34a9.86,9.86,0,0,1-5.53,1.76,8.61,8.61,0,0,1-5.42-2,21.35,21.35,0,0,0-7.51,2.56c-3.59,2.3-3.51,6.39-3.43,7.4A25,25,0,0,0,41,44.19c-.1-1.94-.34-4.68-1-5.73C39,36.74,30.26,34,30.26,34Z"/><circle class="cls-7" cx="32.18" cy="43.62" r="0.68"/><circle class="cls-7" cx="32.48" cy="47.57" r="0.68"/><path d="M20.29,33.13c-2.17.47-2.86,4.93.53,5.31,2,.22,2.51-1.31,3.69-1.22,1.6.13,1.59,1,4.32,1.14,1.81.1,3.63-1.82.91-5-1.26,0-1.73,2.43-5,2.43S20.81,33,20.29,33.13Z"/><path d="M26.3,49.91a12,12,0,0,1-2.95,0c0-.58.76-5.4.76-5.4Z"/><path d="M24.87,50a10,10,0,0,0,1.43-.09s-.61-5.45.86-7.08l1.34-5.11-4.4-1.08-3,1.82,2.31,6.13v4.47l-.1.79c.67-5-1.85-12.13-1.85-12.13"/><path class="cls-6" d="M20.85,31.94c.77-1.29-9,4.32-9,4.32s5.59,2.31,6.2,2.51,2.09-.58,2.15-.29-1,2.46-.49,2.65,3.55,3.25,3.61,5,.13,3,.13,3a18.34,18.34,0,0,0,.46-4C23.64,44.26,20.38,32.72,20.85,31.94Z"/><path class="cls-8" d="M20.85,31.94a.2.2,0,0,0,0-.15s-.1,0-.15,0a1.18,1.18,0,0,0-.31.08,5.31,5.31,0,0,0-.6.22c-.4.17-.79.36-1.18.54-.78.38-1.54.78-2.3,1.18-1.52.82-3,1.65-4.53,2.51v-.05l4.86,2,1.22.47a2.05,2.05,0,0,0,1.24-.1c.21-.06.42-.13.64-.18a.74.74,0,0,1,.37,0,.21.21,0,0,1,.07.22c0,.06,0,.11,0,.16L19.75,40a4.31,4.31,0,0,0-.15.62c0,.21-.05.42.16.47a5.34,5.34,0,0,1,1,.86,13.61,13.61,0,0,1,1.69,2,4.35,4.35,0,0,1,.94,2.47l.1,2.62-.21,0c.15-.71.28-1.43.38-2.15a4.83,4.83,0,0,0,0-2.14l-1.13-4.24c-.36-1.41-.72-2.83-1.05-4.25-.16-.72-.32-1.43-.46-2.15-.07-.36-.13-.72-.19-1.08A2.86,2.86,0,0,1,20.85,31.94Zm0,0a2.86,2.86,0,0,0,0,1.09c.05.36.12.72.19,1.08.15.71.32,1.42.49,2.13.35,1.42.72,2.84,1.1,4.25l1.18,4.22A2.61,2.61,0,0,1,24,45.82c0,.37-.06.73-.11,1.1-.09.72-.21,1.44-.35,2.17l-.14.71-.07-.73c-.19-1.73.16-3.58-1-5a14.39,14.39,0,0,0-1.64-2,6.27,6.27,0,0,0-1-.84s-.1,0-.16-.1a.33.33,0,0,1-.09-.19,1,1,0,0,1,0-.35A6.17,6.17,0,0,1,19.6,40L20,38.72c0-.09.06-.25,0-.23a.66.66,0,0,0-.27,0l-.63.17a2.13,2.13,0,0,1-1.32.09l-1.22-.48-4.84-2,0,0,0,0Q14,35,16.33,33.75c.76-.4,1.53-.79,2.3-1.17.39-.18.78-.37,1.18-.53l.61-.23a1.73,1.73,0,0,1,.31-.07c.05,0,.12,0,.15,0S20.87,31.9,20.85,31.94Z"/><path class="cls-9" d="M21.47,35.92A5.71,5.71,0,0,0,23.59,37a4.68,4.68,0,0,0,2.35.1A4.1,4.1,0,0,0,28,36a2.45,2.45,0,0,0,.79-2.15,2.38,2.38,0,0,1-.71,2.22A4.26,4.26,0,0,1,26,37.26a5.34,5.34,0,0,1-4.5-1.34Z"/><path class="cls-6" d="M28.82,32.81c-.75-1.3,8.46,3.83,8.46,3.83s-5.09,2.85-5.69,3-2-.58-2.09-.29,1,2.47.48,2.67-3.46,3.28-3.52,5a17.69,17.69,0,0,1-.16,2.24A12.15,12.15,0,0,1,25.89,46C26.1,45.22,29.27,33.59,28.82,32.81Z"/><path class="cls-8" d="M28.82,32.81c0-.05-.05-.09,0-.14s.07-.07.12-.07a1,1,0,0,1,.3,0c.19,0,.38.12.57.19l1.1.47c.73.34,1.45.7,2.17,1.06,1.43.73,2.84,1.48,4.25,2.26l0,0,0,0q-2.17,1.23-4.36,2.42c-.37.19-.74.39-1.12.57a1.64,1.64,0,0,1-1.25,0l-.6-.17c-.17,0-.48-.14-.39,0,.1.38.27.77.4,1.17a2.91,2.91,0,0,1,.22,1.26c0,.14-.2.23-.26.26a1.24,1.24,0,0,0-.23.17c-.16.13-.31.28-.46.42a14.35,14.35,0,0,0-1.58,1.9,5.89,5.89,0,0,0-1.06,2.18c-.06.8-.06,1.65-.19,2.49l-.09.56-.12-.55c-.16-.7-.29-1.39-.38-2.1a5.41,5.41,0,0,1-.05-1.07,10.53,10.53,0,0,1,.27-1l1.09-4.08c.36-1.37.71-2.73,1-4.11.16-.68.31-1.37.45-2.06A7.08,7.08,0,0,0,28.82,32.81Zm0,0a6.74,6.74,0,0,1-.19,2.09c-.13.69-.27,1.39-.42,2.07-.31,1.38-.64,2.75-1,4.12l-1.05,4.1a10,10,0,0,0-.24,1,4.49,4.49,0,0,0,.06,1,20.84,20.84,0,0,0,.41,2.06H26.2c.1-.81.08-1.63.17-2.48a6.19,6.19,0,0,1,1.12-2.27,14.09,14.09,0,0,1,1.63-1.9c.15-.15.3-.29.47-.43a2.93,2.93,0,0,1,.26-.19C30,42,30,42,30,41.89a2.89,2.89,0,0,0-.2-1.17c-.13-.4-.29-.78-.39-1.2,0-.05,0-.12,0-.21a.32.32,0,0,1,.2,0,1.65,1.65,0,0,1,.32.07l.6.18a1.53,1.53,0,0,0,1.17,0c.38-.17.74-.36,1.11-.55,1.47-.78,2.93-1.58,4.39-2.38v0Q35.16,35.49,33,34.38c-.72-.37-1.43-.73-2.16-1.06-.37-.17-.73-.34-1.11-.48-.18-.07-.37-.14-.57-.2a1.35,1.35,0,0,0-.29,0s-.11,0-.12.07S28.8,32.76,28.82,32.81Z"/><path d="M23.7,17.48c4.51-3,8.21-1.09,9.87-1.09s1.32-.52,1.14-1.23-1.22-2.71-2.23-2.92-9.37,2.62-9.37,2.62l.79,2.32Z"/><path d="M35.52,21.08c-.48-6.41-.06-7.94-4.69-9.84s-6.42,1.15-6.42,1.15L33,15.17s1.76.65,1.92,3.58S35.52,21.08,35.52,21.08Z"/><path d="M23,19c1.67,0,4.19-2.29,5.7-3.2L28,14.85s-6.26,2.45-6,3.65l.16.12Z"/><path d="M30.24,16.47c1.61,1.35,5,3.11,5.65,2.92s-2.38-4.59-2.38-4.59L30.6,16.35Z"/><path d="M23.7,18.75l.43-.05a40.16,40.16,0,0,0,4.79-2.58c-1.19-.6-2.13-1.1-2.13-1.1Z"/><path d="M30.51,13.73,29.09,16l-.17.13a32.32,32.32,0,0,0,4.67,2.11C34.26,18.22,30.51,13.73,30.51,13.73Z"/><path d="M33.3,17.86c1.1,2.24,2.67,9.43-3.94,13.48,4.31.53,5.51.53,5.51.53l.65-14.77Z"/><path d="M32.21,17.48C33.77,20.2,35,26.73,28.7,31.53a53.38,53.38,0,0,0,6.17-.88l.28-12.3Z"/></g></g></svg>