<svg xmlns="http://www.w3.org/2000/svg" viewBox="0 0 50 50"><defs><style>.cls-1{fill:#bae2f0;}.cls-2{fill:#0c0c0c;}.cls-3{fill:#734b35;}.cls-4{fill:#523626;}.cls-5{fill:#dfebd8;}.cls-6{fill:#8bc26d;}</style></defs><title>Girl2-1</title><g id="Layer_2" data-name="Layer 2"><g id="Layer_1-2" data-name="Layer 1"><circle class="cls-1" cx="25" cy="25" r="25"/><path class="cls-2" d="M37.8,27.25S40.61,16,32.57,13.72c-.9-2.68-2.94-6.51-9.7-5.62S9,11.93,10.74,30.06C15.21,30.06,37.8,27.25,37.8,27.25Z"/><path class="cls-3" d="M31.35,19.84c-1.16-2.57-3.15-1.15-3.66-1.15s-2.55-1.78-2-2.93-2.51,1.42-5.92.45-4.42-2.47-4.59-.75S13.73,25.86,17,28.75a4.46,4.46,0,0,1,.52.31,22.22,22.22,0,0,0,3.72,1v2.3h7.66L29,27.11V23.74S31.86,23.56,31.35,19.84Z"/><rect class="cls-3" x="21.26" y="22.4" width="7.53" height="12.77" transform="translate(50.04 57.56) rotate(-180)"/><path class="cls-4" d="M21.19,30.08a24.85,24.85,0,0,0,4.6-3.14s-2.3,3.82-4.56,4.71C21.17,31,21.19,30.08,21.19,30.08Z"/><path class="cls-5" d="M18.57,33s3.4,2.72,6.64,2.72S31.51,33,31.51,33a36.84,36.84,0,0,1,6.63,3.24c3.59,2.3,3.51,6.39,3.43,7.4a25,25,0,0,1-32.64.53c.09-1.94.33-4.68,1-5.73C10.91,36.74,18.57,33,18.57,33Z"/><path class="cls-5" d="M31.51,32.51c0-1.45-1-1.79-1.55-1.55s-2.17,3.57-4.7,3.36-4-3.5-5.49-3.43-1.08,1.26-1.2,1.62a4.87,4.87,0,0,1-.71,1L22.58,36l4,.93,4-.66Z"/><path class="cls-6" d="M26.53,36.2c-.41,1.09-.43,7.41-.43,7.41h-.66s.38-5.3.55-6.7S26.53,36.2,26.53,36.2Z"/><path class="cls-6" d="M23.82,36.2c.41,1.09.43,7.41.43,7.41h.66s-.37-5.3-.54-6.7S23.82,36.2,23.82,36.2Z"/><path class="cls-2" d="M18.2,29.29c-2.41-2.24-2.51-3.47-3.41-5.78s0,2.53,0,2.53l.81,2.74Z"/><path class="cls-2" d="M20.46,16.36c-3-1-4.72-2.15-6.07,1s-1.26-2.69-1.26-2.69l2.81-1.39Z"/><path class="cls-2" d="M15.1,16.14c-.24,6.79-.4,7.78,3.1,13.15-2.24,0-5.88-5.78-5.88-5.78Z"/><path class="cls-2" d="M18.68,29.44a21.63,21.63,0,0,1-2.13-2.5,18,18,0,0,0,1.07,2.16l.58.39Z"/></g></g></svg>