<svg xmlns="http://www.w3.org/2000/svg" viewBox="0 0 50 50"><defs><style>.cls-1{fill:#bae2f0;}.cls-2{fill:#734b35;}.cls-3{fill:#edf5ff;}.cls-4{fill:#523626;}.cls-5{fill:#80aced;}</style></defs><title>Girl1-1</title><g id="Layer_2" data-name="Layer 2"><g id="Layer_1-2" data-name="Layer 1"><path class="cls-1" d="M50,25A25,25,0,1,0,8.37,43.66c-.08-1-.16-5.1,3.43-7.4A36.76,36.76,0,0,1,18.44,33s3.06,2.72,6.29,2.72S31.37,33,31.37,33s7.66,3.72,8.68,5.44c.63,1,.87,3.79,1,5.73A24.93,24.93,0,0,0,50,25Z"/><path d="M16.27,33.9s2.18-5.06.64-9.71-.07-13.72,9.41-13.34c0,0,7-1.28,8.74,4s0,7.91,0,10.72S37.47,29.28,37,33s-.9,7.07-.9,7.07L18.44,36.51Z"/><path d="M34.06,13c2.26,3.14,3.28,6.54,2.56,8.54a7.88,7.88,0,0,0-.26,5.38c.55,1.6,3.11,7,2.15,9.67s-4.21-7.77-4.21-7.77l1.14-7.28Z"/><rect class="cls-2" x="20.92" y="25.53" width="7.53" height="12.77"/><path d="M35.85,19.32c-.17,4.64-.56,8.59.89,10.87s2.39,5.25,1.63,6.76a7.5,7.5,0,0,1-2.23,2.5L33,34.68Z"/><path d="M16.91,24.19c.26,4.49-3.44,6.15-3.57,9.38a15.68,15.68,0,0,0,.94,5.88l5.36-10.36Z"/><path class="cls-3" d="M31.37,33s-3.4,2.72-6.64,2.72S18.44,33,18.44,33a36.76,36.76,0,0,0-6.64,3.24c-3.59,2.3-3.51,6.39-3.43,7.4A25,25,0,0,0,41,44.19c-.1-1.94-.34-4.68-1-5.73C39,36.74,31.37,33,31.37,33Z"/><path class="cls-2" d="M20.88,27.79V24.42s-2.89-.18-2.38-3.9c1.16-2.57,3.14-1.15,3.66-1.15s2.55-1.77,2-2.93,2.51,1.42,5.91.45,4.43-2.47,4.6-.75S36.2,27,32.62,29.65a21.75,21.75,0,0,1-4,1.07V33H21Z"/><path class="cls-3" d="M18.44,33c0-1.45,1-1.79,1.54-1.55s2.17,3.57,4.7,3.36,4-3.5,5.49-3.43,1.09,1.26,1.2,1.62a4.81,4.81,0,0,0,.72,1l-4.73,2.41-4,.93-3.95-.66Z"/><path class="cls-4" d="M28.62,30.72A24.65,24.65,0,0,1,24,27.57s2.3,3.83,4.56,4.71C28.64,31.64,28.62,30.72,28.62,30.72Z"/><polygon points="29.05 17.07 34.67 16.14 34.67 14.38 29.05 17.07"/><path d="M31.86,16.26c2.29.42,3,3.34,2.81,5.84s-.43,5.54-2.05,7.55,3.23,4.75,3.23,4.75l-.79-7.08s-.18-6.07.3-6.77-.69-5.49-.69-5.49Z"/><path d="M22.16,19.37s.09,4.2-1.28,5.05,0,2,0,2,4-6.29,2.29-8.68S22.16,19.37,22.16,19.37Z"/><path d="M27.73,17.07c-2.47.48-6.52,8.46-6.18,11a7.82,7.82,0,0,1-.47,4.19,21.65,21.65,0,0,0-.67-3.85c-.47-1.45,1.52-4.24,1.52-4.24l1.4-8L25,15.06Z"/><path d="M30.41,30.33s3.27-1.29,3.7-3.95,0,4.34,0,4.34Z"/><path d="M25.26,17.55s1,.34,3.79-.48-3.49-3-3.79-1.34A17.77,17.77,0,0,1,24,19.34s1.94-2.17,2.87-2.27S25.26,17.55,25.26,17.55Z"/><path d="M28.63,17.19s-1.19-.47-4.6,3.36,2.08-4.82,2.08-4.82Z"/><path d="M22.47,18.63s-.83,3-2.07,7.15,2.51-4.52,2.51-4.52Z"/><path d="M25.18,19.34c-1.27,1.88-2.39,4.66-2,6.15a8.81,8.81,0,0,1-.09,5.23c-.63,1.58-.21,4.76-.21,4.76l-2.34-3.36,1.79-9.06Z"/><path d="M21.66,33.68s1.56,4.15,1.22,5.3c.5-1.58-.39-6.34-.39-6.34Z"/><path d="M30.41,16.78s-3.66.48-5.23,3.07a17.58,17.58,0,0,0-2,4.34L24,18.06Z"/><path d="M21.93,21.53S22,19.07,20.57,19s-1.68-.35-1.68-.35,1.44-3.75,2.77-1.39A4.62,4.62,0,0,1,21.93,21.53Z"/><path class="cls-5" d="M23.56,36.46c.41,1.1.43,7.42.43,7.42h.66s-.38-5.3-.55-6.71S23.56,36.46,23.56,36.46Z"/><path class="cls-5" d="M26.27,36.46c-.41,1.1-.43,7.42-.43,7.42h-.66s.37-5.3.54-6.71S26.27,36.46,26.27,36.46Z"/><path d="M32.48,16.46c-5.27,1.33-7.53,1.73-9.36,8.27s1-7.24,1-7.24l2.55-1.76Z"/></g></g></svg>