<svg xmlns="http://www.w3.org/2000/svg" viewBox="0 0 50 50.32"><defs><style>.cls-1{fill:#bae2f0;}.cls-2{fill:#6387ab;}.cls-3{fill:#d9a07a;}.cls-4{fill:#69452b;}.cls-5{fill:#ba7e56;}.cls-6{fill:#2d5073;}</style></defs><title>Man1-3</title><g id="Layer_2" data-name="Layer 2"><g id="Layer_1-2" data-name="Layer 1"><path class="cls-1" d="M25,34.47c7.58,0,14.14,3.44,17.41,8.46a25,25,0,1,0-34.82,0C10.86,37.91,17.42,34.47,25,34.47Z"/><path class="cls-2" d="M31,34.3h0c0,2.6-2.8,4.71-6.26,4.71s-6.14-2-6.24-4.57A19.18,19.18,0,0,0,7.59,42.66,23.94,23.94,0,0,0,25,50.32a23.94,23.94,0,0,0,17.41-7.66A19.21,19.21,0,0,0,31,34.3Z"/><path class="cls-3" d="M34.78,22.55V14.86a2.15,2.15,0,0,0-.59-1.49c-1.07-2.17-4.1-3.74-7.68-3.74A10.45,10.45,0,0,0,21.28,11a1.17,1.17,0,0,1-.44.31,10.57,10.57,0,0,0-1.38,1.83c-.36.81-.71,1.57-1,2.35a1.55,1.55,0,0,0,0,.22l-.13.23A20,20,0,0,0,18,18.08,16.58,16.58,0,0,0,18.3,22l1.64,4.7v7.37c-.5.12-1,.25-1.46.39C18.58,37,21.33,39,24.72,39S31,36.91,31,34.31h0c-.39-.11-.79-.2-1.19-.29V30.64a3.08,3.08,0,0,0,1.85,0C33.9,30,35.08,26.62,34.78,22.55Z"/><path class="cls-3" d="M19.92,31.89a4.78,4.78,0,0,1-1.2,2.76c-.38.52.49,1,.86.5.64-.87,1.47-2.13,1.34-3.26-.07-.63-1.07-.64-1,0Z"/><path class="cls-3" d="M30.74,34.27a12.52,12.52,0,0,1-1.2-1.52c-.36-.53-1.23,0-.87.5A14.18,14.18,0,0,0,30,35c.44.47,1.14-.24.71-.71Z"/><path class="cls-3" d="M30,33.63c-.12-.46-.23-.92-.33-1.39-.12-.63-1.09-.36-1,.27.1.46.2.92.33,1.38a.5.5,0,0,0,1-.26Z"/><path class="cls-3" d="M21,32.6a3.18,3.18,0,0,1,.21-1c.24-.6-.73-.86-1-.26A3.9,3.9,0,0,0,20,32.6c0,.64,1,.64,1,0Z"/><path class="cls-4" d="M31.6,15.31s3.1-1,3.18-.45.16-5-8.27-5.23c-7.36-.2-8.19,4.75-8.74,6.85-.92,3.46,2.17,10.21,2.17,10.21a4.41,4.41,0,0,0,1.78-2.2c.66-1.76-2-2.12-2.4-3.83-.28-1.36-.07-1.94.93-1.67a10.15,10.15,0,0,1,2.3,1.18c2.22,1.41.75-3.73,1.77-4.29S29.93,16,31.6,15.31Z"/><path class="cls-3" d="M19.31,19.09c1.3-1.11,2.33,0,3.35.89s1.68.65,1.55.24a25.7,25.7,0,0,0-.08,3.41l-2,.86S20,23.35,19.4,21.68C19,20.39,19,19.39,19.31,19.09Z"/><path class="cls-5" d="M29.79,30.64S26,29.66,24.73,28c1.09,2.28,5.06,5.4,5.06,5.4Z"/><path class="cls-4" d="M34.78,14.86S34,8.14,25.67,8.44,16,15.87,16.45,18c0,0,.67-2.45,1.49-2.8-1.79,2-1.25,5.69-1.25,5.69s1.91-4.76,3-4.87c-1.51,2.45-2.91,1.36-1.89,7.68a24.93,24.93,0,0,0,.69-3.78l.19,1.64.2-2.68,2.45-1.59L24,15.18,29.36,14l4.34.24-.38-1.39Z"/><circle class="cls-6" cx="25" cy="42.4" r="0.78"/><circle class="cls-6" cx="25" cy="45.58" r="0.78"/><path class="cls-5" d="M29.79,33.4l.26.14a3.83,3.83,0,0,1-.39-1.17C29.62,31.85,29.79,33.4,29.79,33.4Z"/><path class="cls-4" d="M32.7,11.45c1.83.72,2.17,1.36,2.9,1a2.92,2.92,0,0,0,1.06-.81s-.24,3.17-1.88,3.2-3.31-.31-4.4-.26S32.7,11.45,32.7,11.45Z"/></g></g></svg>