<svg xmlns="http://www.w3.org/2000/svg" viewBox="0 0 50 50"><defs><style>.cls-1{fill:#568c9e;}.cls-2{fill:#1a1a1a;}.cls-3{fill:#f2c7b5;}.cls-4{fill:#f7f7f7;}.cls-5{fill:#e3ad96;}.cls-6{fill:gray;}</style></defs><title>Man2-2</title><g id="Layer_2" data-name="Layer 2"><g id="Layer_1-2" data-name="Layer 1"><circle class="cls-1" cx="25" cy="25" r="25"/><path class="cls-2" d="M19,34h0c0,2.6,2.8,4.71,6.26,4.71s6.14-2,6.24-4.57a20.29,20.29,0,0,1,11.19,8.51A24.34,24.34,0,0,1,25,50,24.34,24.34,0,0,1,7.29,42.64,20.36,20.36,0,0,1,19,34Z"/><path class="cls-3" d="M15.22,22.23V14.54a2.17,2.17,0,0,1,.59-1.49c1.07-2.17,4.1-3.73,7.68-3.73a10.45,10.45,0,0,1,5.23,1.33,1.17,1.17,0,0,0,.44.31,10.57,10.57,0,0,1,1.38,1.83c.36.81.71,1.57,1,2.36a1.48,1.48,0,0,1,0,.21l.13.23A20,20,0,0,1,32,17.76a16.53,16.53,0,0,1-.32,3.91l-1.64,4.71v7.37c.5.11,1,.24,1.46.38-.1,2.54-2.85,4.57-6.24,4.57S19,36.59,19,34h0c.39-.11.79-.2,1.19-.29V30.32A5.52,5.52,0,0,1,18,30.18C15.7,29.48,14.92,26.3,15.22,22.23Z"/><path class="cls-3" d="M29.08,31.57c-.13,1.12.7,2.4,1.34,3.27.37.51,1.24,0,.86-.51a4.75,4.75,0,0,1-1.2-2.76c.07-.64-.93-.63-1,0Z"/><path class="cls-3" d="M20,34.66a14.18,14.18,0,0,0,1.36-1.73c.36-.53-.51-1-.87-.5A12.52,12.52,0,0,1,19.26,34c-.43.47.27,1.18.71.71Z"/><path class="cls-3" d="M21,33.57c.13-.46.23-.92.33-1.38.13-.63-.84-.9-1-.27-.1.47-.21.93-.33,1.39a.5.5,0,0,0,1,.26Z"/><path class="cls-3" d="M30,32.28a3.9,3.9,0,0,0-.25-1.22c-.23-.6-1.2-.34-1,.26a3.18,3.18,0,0,1,.21,1c0,.64,1,.65,1,0Z"/><path class="cls-4" d="M18.4,15s-3.1-1-3.18-.45-.16-5,8.27-5.22c7.36-.21,8.19,4.74,8.74,6.85.92,3.45-2.17,10.21-2.17,10.21a4.46,4.46,0,0,1-1.78-2.21c-.66-1.75,2-2.12,2.4-3.83.28-1.36.07-1.94-.93-1.67a9.88,9.88,0,0,0-2.3,1.19c-2.22,1.4-.75-3.74-1.77-4.29S20.07,15.7,18.4,15Z"/><path class="cls-3" d="M30.69,18.77c-1.3-1.11-2.33,0-3.35.89s-1.68.65-1.55.24a25.7,25.7,0,0,1,.08,3.41l2,.86S30.05,23,30.6,21.36C31,20.07,31.05,19.07,30.69,18.77Z"/><path class="cls-5" d="M20.21,30.32s3.78-.14,5.06-1.8c-1.09,2.29-5.06,4.38-5.06,4.38Z"/><path class="cls-4" d="M29.35,9.43a17.88,17.88,0,0,0-2.52-.06.45.45,0,0,1-.11,0,3.44,3.44,0,0,1-.53,0c-1.62-.18-2.21-.47-3.45-.51s-2,.51-3.7.51a14.09,14.09,0,0,0-2.68,0c-1.36.16-.91,1.6-1.1,4.83l10.52-.61s6,7.87,6.62,4C33,13.88,31.23,10.24,29.35,9.43Z"/><path class="cls-6" d="M23.81,38.7a12,12,0,0,1,1.48.95,12.14,12.14,0,0,1,1.33,1.16,11.37,11.37,0,0,1-1.48-1A11.19,11.19,0,0,1,23.81,38.7Z"/><path class="cls-6" d="M26.62,38.7a12.82,12.82,0,0,1-2.81,2.11,12,12,0,0,1,2.81-2.11Z"/><polygon class="cls-5" points="20.21 32.54 20.09 32.97 20.21 32.9 20.21 32.54"/></g></g></svg>