<svg xmlns="http://www.w3.org/2000/svg" viewBox="0 0 50 50"><defs><style>.cls-1{fill:#bae2f0;}.cls-2{fill:#f2f2f2;}.cls-3{fill:#6d965b;}.cls-4{fill:#726e6e;}.cls-5{fill:#d9a07a;}.cls-6{fill:#515151;}.cls-7{fill:#69452b;}.cls-8{fill:#ba7e56;}</style></defs><title>Neu1-3</title><g id="Layer_2" data-name="Layer 2"><g id="Layer_1-2" data-name="Layer 1"><circle class="cls-1" cx="25" cy="25" r="25"/><path class="cls-2" d="M18.45,33.83c-.07-1.85-.65-1.69,2.74-1.1s8.74-.58,9.65-.74c.57-.1.64.63.57,1.39S26.74,38,26.74,38L19,34.66Z"/><path class="cls-3" d="M31.37,33s-3.4,2.72-6.64,2.72S18.44,33,18.44,33a36.76,36.76,0,0,0-6.64,3.24c-3.59,2.3-3.51,6.39-3.43,7.4A25,25,0,0,0,41,44.19c-.1-1.94-.34-4.68-1-5.73C39,36.74,31.37,33,31.37,33Z"/><path class="cls-4" d="M28.77,33.8s1.39-.58,1.31-.77-1.28-.16-1.28-.16Z"/><path class="cls-5" d="M21.17,24V34.07a.38.38,0,0,1,0,.1.54.54,0,0,1,.06.3s0,0,0,.05a.56.56,0,0,1,0,.12s0,.06,0,.09v2h7.69V24Z"/><path class="cls-2" d="M22.76,34.65A16.23,16.23,0,0,1,18.44,33c0-.05-1.89.48-6.21,3s-4.05,7.7-3.86,7.68l.41.45a25,25,0,0,0,14.33,5.82,37.89,37.89,0,0,0,.23-14.68A.77.77,0,0,0,22.76,34.65Z"/><path class="cls-2" d="M31.37,33a15.74,15.74,0,0,0-4.63,1.74c-.38.31-.14,10.24.53,15.12A23.06,23.06,0,0,0,41,44.19c-.06-.61-.27-5-.81-5.86S32.52,33,31.37,33Z"/><path class="cls-4" d="M21.23,34.23c-1.34-1-1.66-1-.05-1A7,7,0,0,0,21.23,34.23Z"/><line class="cls-6" x1="23.1" y1="37.36" x2="15.51" y2="34.99"/><line class="cls-6" x1="23.1" y1="40.47" x2="12.55" y2="37.02"/><line class="cls-6" x1="23.1" y1="43.23" x2="10.28" y2="38.74"/><line class="cls-6" x1="23.1" y1="46" x2="9.68" y2="41.47"/><line class="cls-6" x1="23.1" y1="48.52" x2="9.68" y2="44"/><line class="cls-6" x1="27.01" y1="37.36" x2="34.6" y2="34.99"/><line class="cls-6" x1="27.01" y1="40.47" x2="37.55" y2="37.02"/><line class="cls-6" x1="27.01" y1="43.23" x2="39.83" y2="38.74"/><line class="cls-6" x1="27.01" y1="46" x2="40.43" y2="41.47"/><line class="cls-6" x1="27.01" y1="48.52" x2="40.43" y2="44"/><path class="cls-7" d="M16.44,12.27a6.32,6.32,0,0,0-2,2.38.69.69,0,0,1-.13.21c-1.75,3.9-1.28,9.47.14,11.68.36.57.66,1,.93,1.45s.75.59,1.12.9l.08.05.09.09.13.11,0,.07,0,0c1,.6,2.13,1,3.2,1.51a.45.45,0,0,1,.27.55l.62.21C25.32,33.08,17.29,14.24,16.44,12.27Z"/><path class="cls-5" d="M31.21,21.44c-1.16-2.57-3.15-1.15-3.66-1.15s-2.55-1.78-2-2.93-2.51,1.42-5.92.44-4.42-2.46-4.59-.74a42.62,42.62,0,0,0-.33,7L15,25.39a17,17,0,0,0,1.21,2.8c.22.32.43.63.66.94a18.4,18.4,0,0,0,2.06,1.7,7.88,7.88,0,0,0,.92.54c.83.2,1.28.26,1.28.26v.1a.47.47,0,0,1,.25.3c.69.23,1.4.42,2.15.61a1,1,0,0,1,.8,1.3h4l.19-.07a1,1,0,0,1,.24-.11l.09-5V25.34S31.72,25.16,31.21,21.44Z"/><path class="cls-8" d="M21.08,31.63a23.57,23.57,0,0,0,4.57-3.14s-2.21,3.85-4.47,4.73C21.16,32.6,21.08,31.63,21.08,31.63Z"/><path class="cls-7" d="M27,11.22c-7.79-2.62-13.42,1.71-12.41,5,.13.41.51.41.93.38a.82.82,0,0,1,.28-.06.53.53,0,0,1,.18,0,1.37,1.37,0,0,1,.36,0c1.31.4,2.74.82,3.7,1.09a9.42,9.42,0,0,0,2.32.17h0c.92,0,2-.56,2.84,0,.42.28.53.76.85,1.13a12.54,12.54,0,0,0,1.33,1.05.73.73,0,0,1,.14.18c.85-.21,2.94-.52,3.63,1.13a2.75,2.75,0,0,1-1.09,3.66c-.53.29-1.24,0-1.29.24s.24,4.54.05,4.54C31.28,27.84,38.48,15.07,27,11.22Z"/><path class="cls-7" d="M22.09,17.94a.94.94,0,0,1,.3-.06c.92,0,2-.54,2.84,0,.42.28.53.74.85,1.1a12.3,12.3,0,0,0,1.33,1,1,1,0,0,1,.17.21c1.18-.15,3.66-.19,3.66-.19l-5.59-3.76-5.59,1.44c.75.06,1.39.14,2,.23Z"/><path class="cls-7" d="M32.25,24.26a6.09,6.09,0,0,1-3.39,6.12C28.94,27.06,32.25,24.26,32.25,24.26Z"/><path class="cls-7" d="M32.65,23.1c3.63-.28,7.84,3.8,4.71,9.68-2.36-1.09-3.85-7-5.17-7s.05-2.93.05-2.93Z"/><path class="cls-7" d="M28.86,30.38l-.06-5s1.6-.44,1.94-1.16,1-2.23,0-3.4-3.56-.37-3.56-.37L29,18.86l2.28,1.29L32,21.67l-.62,3.57-1.78.86Z"/><path class="cls-7" d="M17.77,13.5S14.55,15,14.61,16.27a.92.92,0,0,0,.47.8.74.74,0,0,1,.19-.27l.13-.1.1,0a.83.83,0,0,1,.32-.07.88.88,0,0,1,.29.06.69.69,0,0,1,.15.07h0l.06,0a16.93,16.93,0,0,0,1.85.66h.62Z"/><path class="cls-7" d="M14.8,17.55c.74-.9,2.07-.48,5.1.51,2.38,0,3.75-.37,4.61-.19s1.15,2.24,2.67,2.54c.8-.43.29-2,.29-2L25,16.27l-4.75.49-4.5-.64-1.08.54Z"/><path class="cls-7" d="M20.73,18.06A1.5,1.5,0,0,1,20.89,20l-.3.47S22,19.8,21.7,18.86a3.82,3.82,0,0,0-.95-1.46Z"/></g></g></svg>