<svg xmlns="http://www.w3.org/2000/svg" viewBox="0 0 50 50"><defs><style>.cls-1{fill:#bae2f0;}.cls-2{fill:#f0cac0;}.cls-3{fill:#734b35;}.cls-4{fill:#523626;}.cls-5{fill:#b56969;}.cls-6{fill:#726e6e;}.cls-7{fill:#515151;}</style></defs><title>Neu1-1</title><g id="Layer_2" data-name="Layer 2"><g id="Layer_1-2" data-name="Layer 1"><circle class="cls-1" cx="25" cy="25" r="25"/><path d="M16.61,12.23a6.47,6.47,0,0,0-2,2.39.53.53,0,0,1-.12.21c-1.75,3.9-1.28,9.47.14,11.68.36.57.66,1,.93,1.45s.75.59,1.12.9l.08.05.09.09.13.11.05.07,0,0c1,.6,2.13,1,3.2,1.51a.45.45,0,0,1,.27.55l.62.21C25.49,33.05,17.46,14.21,16.61,12.23Z"/><path class="cls-2" d="M18.45,33.83c-.07-1.85-.65-1.69,2.74-1.1s8.74-.58,9.65-.74c.57-.1.64.63.57,1.39S26.74,38,26.74,38L19,34.66Z"/><path class="cls-3" d="M31.35,21.41c-1.16-2.57-3.15-1.16-3.66-1.16s-2.55-1.77-2-2.92-2.51,1.42-5.92.44S15.35,15.3,15.18,17a42.62,42.62,0,0,0-.33,7l.24,1.29a17.92,17.92,0,0,0,1.21,2.8c.22.31.43.63.66.94A19.56,19.56,0,0,0,19,30.8a7.88,7.88,0,0,0,.92.54c.83.2,1.28.26,1.28.26v.31a21.62,21.62,0,0,0,2.4.69,1.06,1.06,0,0,1,.8,1.31h4.46L29,28.68V25.31S31.86,25.13,31.35,21.41Z"/><path class="cls-3" d="M21.18,24v10.1a.45.45,0,0,1,0,.42,0,0,0,0,1,0,0v2.21h7.61V24Z"/><path class="cls-4" d="M21.18,31.6a24.58,24.58,0,0,0,4.61-3.14s-2.35,3.83-4.61,4.71C21.2,32.54,21.18,31.6,21.18,31.6Z"/><path class="cls-5" d="M31.37,33s-3.4,2.72-6.64,2.72S18.44,33,18.44,33a36.76,36.76,0,0,0-6.64,3.24c-3.59,2.3-3.51,6.39-3.43,7.4A25,25,0,0,0,41,44.19c-.1-1.94-.34-4.68-1-5.73C39,36.74,31.37,33,31.37,33Z"/><path d="M27.19,11.19c-7.79-2.62-13.42,1.71-12.41,5,.13.41.51.41.93.38a.82.82,0,0,1,.28-.06,1,1,0,0,1,.18,0,1.36,1.36,0,0,1,.36.05c1.31.4,2.74.82,3.7,1.08a9.37,9.37,0,0,0,2.32.18h0c.92,0,2-.56,2.84,0,.42.29.53.77.85,1.14a12.54,12.54,0,0,0,1.33,1.05.73.73,0,0,1,.14.18c.85-.21,2.94-.53,3.63,1.13a2.76,2.76,0,0,1-1.09,3.66c-.53.29-1.24,0-1.29.24s.17,4.54,0,4.54C31.37,27.81,38.65,15,27.19,11.19Z"/><path d="M22.26,17.92a.94.94,0,0,1,.3-.06c.92,0,2-.55,2.84,0,.42.27.53.74.85,1.1a11.22,11.22,0,0,0,1.33,1,.83.83,0,0,1,.17.21c1.18-.15,3.66-.19,3.66-.19l-5.59-3.79-5.59,1.45c.75.06,1.39.14,2,.23Z"/><path d="M32.42,24.23a6.19,6.19,0,0,1-3.49,6.12C29,27,32.42,24.23,32.42,24.23Z"/><path d="M32.82,23.07c3.63-.28,7.84,3.8,4.71,9.67-2.36-1.08-3.85-7-5.17-7s0-2.93,0-2.93Z"/><path d="M28.93,30.35l0-5s1.6-.44,1.94-1.16.95-2.24,0-3.41-3.56-.36-3.56-.36l1.78-1.55,2.28,1.29.74,1.52-.62,3.57-1.78.85Z"/><path d="M17.94,13.47s-3.22,1.45-3.16,2.77a.9.9,0,0,0,.47.79.7.7,0,0,1,.19-.26l.13-.1.1-.05a1,1,0,0,1,.32-.06.68.68,0,0,1,.29.06l.15.07h0l.06,0a16.93,16.93,0,0,0,1.85.66H19Z"/><path d="M15,17.52c.74-.9,2.07-.48,5.1.51,2.37,0,3.75-.38,4.61-.19s1.15,2.24,2.67,2.54c.8-.43.29-2,.29-2l-2.43-2.17-4.75.48L16,16.09l-1.08.53Z"/><path class="cls-2" d="M22.76,34.65A20.56,20.56,0,0,1,18.44,33c0-.05-2,.38-6.3,2.85a7.94,7.94,0,0,0-3.77,7.79l.41.45a25,25,0,0,0,14.33,5.82,37.89,37.89,0,0,0,.23-14.68A.8.8,0,0,0,22.76,34.65Z"/><path class="cls-2" d="M31.37,33a15.74,15.74,0,0,0-4.63,1.74c-.38.31-.14,10.24.53,15.12A23.06,23.06,0,0,0,41,44.19c-.06-.61-.27-5-.81-5.86S32.52,33,31.37,33Z"/><path class="cls-6" d="M21.23,34.19c-1.34-1-1.66-.94-.05-1A6.52,6.52,0,0,0,21.23,34.19Z"/><path class="cls-6" d="M28.9,33.72s1.25-.53,1.19-.7-1.19-.15-1.19-.15Z"/><path d="M20.9,18a1.5,1.5,0,0,1,.16,1.91l-.3.46s1.45-.63,1.11-1.57a3.72,3.72,0,0,0-.95-1.46Z"/><line class="cls-7" x1="23.1" y1="37.36" x2="15.51" y2="34.99"/><line class="cls-7" x1="23.1" y1="40.47" x2="12.55" y2="37.02"/><line class="cls-7" x1="23.1" y1="43.23" x2="10.28" y2="38.74"/><line class="cls-7" x1="23.1" y1="46" x2="9.68" y2="41.47"/><line class="cls-7" x1="23.1" y1="48.52" x2="9.68" y2="44"/><line class="cls-7" x1="27.01" y1="37.36" x2="34.6" y2="34.99"/><line class="cls-7" x1="27.01" y1="40.47" x2="37.55" y2="37.02"/><line class="cls-7" x1="27.01" y1="43.23" x2="39.83" y2="38.74"/><line class="cls-7" x1="27.01" y1="46" x2="40.43" y2="41.47"/><line class="cls-7" x1="27.01" y1="48.52" x2="40.43" y2="44"/></g></g></svg>