<svg xmlns="http://www.w3.org/2000/svg" viewBox="0 0 50 50"><defs><style>.cls-1{fill:#0b536b;}.cls-2{fill:#9e928f;}.cls-3{fill:#f2c7b5;}.cls-4{fill:#726e6e;}.cls-5{fill:#515151;}.cls-6{fill:#f4f4f4;}.cls-7{fill:#e3ad96;}</style></defs><title>Neu1-2</title><g id="Layer_2" data-name="Layer 2"><g id="Layer_1-2" data-name="Layer 1"><circle class="cls-1" cx="25" cy="25" r="25"/><path class="cls-2" d="M18.45,33.83c-.07-1.85-.65-1.69,2.74-1.1s8.74-.58,9.65-.74c.57-.1.64.63.57,1.39S26.74,38,26.74,38L19,34.66Z"/><rect class="cls-3" x="21.18" y="24" width="7.71" height="12.77" transform="translate(50.08 60.76) rotate(-180)"/><path d="M31.37,33s-3.4,2.72-6.64,2.72S18.44,33,18.44,33a36.76,36.76,0,0,0-6.64,3.24c-3.59,2.3-3.51,6.39-3.43,7.4A25,25,0,0,0,41,44.19c-.1-1.94-.34-4.68-1-5.73C39,36.74,31.37,33,31.37,33Z"/><path class="cls-2" d="M22.76,34.65A16.23,16.23,0,0,1,18.44,33c0-.05-1.89.48-6.21,3s-4.05,7.7-3.86,7.68l.41.45a25,25,0,0,0,14.33,5.82,37.89,37.89,0,0,0,.23-14.68A.77.77,0,0,0,22.76,34.65Z"/><path class="cls-4" d="M21.18,34.23c-1.33-1-1.61-1,0-1Z"/><path class="cls-4" d="M28.88,33.76s1.27-.57,1.21-.74-1.18-.15-1.18-.15Z"/><line class="cls-5" x1="23.1" y1="37.36" x2="15.51" y2="34.99"/><line class="cls-5" x1="23.1" y1="40.47" x2="12.55" y2="37.02"/><line class="cls-5" x1="23.1" y1="43.23" x2="10.28" y2="38.74"/><line class="cls-5" x1="23.1" y1="46" x2="9.68" y2="41.47"/><line class="cls-5" x1="23.1" y1="48.52" x2="9.68" y2="44"/><path class="cls-2" d="M31.37,33a15.74,15.74,0,0,0-4.63,1.74c-.38.31-.14,10.24.53,15.12A23.06,23.06,0,0,0,41,44.19c-.06-.61-.27-5-.81-5.86S32.52,33,31.37,33Z"/><line class="cls-5" x1="27.01" y1="37.36" x2="34.6" y2="34.99"/><line class="cls-5" x1="27.01" y1="40.47" x2="37.55" y2="37.02"/><line class="cls-5" x1="27.01" y1="43.23" x2="39.83" y2="38.74"/><line class="cls-5" x1="27.01" y1="46" x2="40.43" y2="41.47"/><line class="cls-5" x1="27.01" y1="48.52" x2="40.43" y2="44"/><path class="cls-6" d="M16.57,12.27a6.41,6.41,0,0,0-2,2.38.54.54,0,0,1-.13.21c-1.74,3.9-1.27,9.47.14,11.68.37.57.66,1,.93,1.45s.76.59,1.12.9l.08.05.09.09.13.11.05.07,0,0c1,.6,2.12,1,3.19,1.51a.46.46,0,0,1,.28.55l.61.21C25.45,33.08,17.42,14.24,16.57,12.27Z"/><path class="cls-3" d="M31.34,21.33c-1.16-2.59-3.15-1.16-3.66-1.16s-2.55-1.79-2-3-2.51,1.43-5.91.45-4.43-2.49-4.6-.76A43.55,43.55,0,0,0,14.84,24l.24,1.3a18.14,18.14,0,0,0,1.21,2.82c.22.32.44.64.67.95A17.88,17.88,0,0,0,19,30.81a7.88,7.88,0,0,0,.92.54c.82.2,1.27.26,1.27.26v.32a24.81,24.81,0,0,0,2.4.7,1.07,1.07,0,0,1,.81,1.31h4l.2-.07a.76.76,0,0,1,.24-.11l.08-5.1V25.27S31.85,25.09,31.34,21.33Z"/><path class="cls-7" d="M21.18,31.64a24.91,24.91,0,0,0,4.61-3.15s-2.35,3.85-4.61,4.73C21.16,32.6,21.18,31.64,21.18,31.64Z"/><path class="cls-6" d="M27.16,11.22c-7.79-2.62-13.42,1.71-12.41,5,.12.41.51.41.92.38a.88.88,0,0,1,.28-.06.53.53,0,0,1,.18,0,1.5,1.5,0,0,1,.37,0c1.3.4,2.74.82,3.7,1.09a9.37,9.37,0,0,0,2.31.17h0c.91,0,2-.56,2.83,0,.42.28.54.76.86,1.13a12.54,12.54,0,0,0,1.33,1.05,1,1,0,0,1,.13.18c.85-.21,2.94-.52,3.63,1.13a2.74,2.74,0,0,1-1.09,3.66c-.52.29-1.24,0-1.29.24s.17,4.54,0,4.54C31.34,27.84,38.62,15.07,27.16,11.22Z"/><path class="cls-6" d="M22.22,17.94a1,1,0,0,1,.31-.06c.91,0,2-.54,2.83,0,.42.28.54.74.86,1.1a12.3,12.3,0,0,0,1.33,1,1,1,0,0,1,.16.21c1.19-.15,3.66-.19,3.66-.19l-5.58-3.76L20.2,17.71c.74.06,1.39.14,2,.23Z"/><path class="cls-6" d="M32.42,24.26a6.16,6.16,0,0,1-3.48,6.12C29,27.06,32.42,24.26,32.42,24.26Z"/><path class="cls-6" d="M32.78,23.1c3.63-.28,7.84,3.8,4.72,9.68-2.37-1.09-3.85-7-5.18-7s0-2.93,0-2.93Z"/><path class="cls-6" d="M28.94,30.38l0-5s1.6-.44,1.94-1.16.95-2.23,0-3.4-3.56-.37-3.56-.37l1.78-1.55,2.28,1.29.74,1.52-.62,3.57-1.78.86Z"/><path class="cls-6" d="M17.9,13.5S14.68,15,14.75,16.27a.93.93,0,0,0,.46.8.76.76,0,0,1,.2-.27l.13-.1.1,0a.74.74,0,0,1,.31-.07.83.83,0,0,1,.29.06l.16.07h0l.06,0a16.77,16.77,0,0,0,1.84.66h.62Z"/><path class="cls-6" d="M14.93,17.55c.75-.9,2.09-.48,5.14.51,2.39,0,3.77-.37,4.64-.19s1.15,2.24,2.69,2.54c.8-.43.28-2,.28-2l-2.44-2.18-4.78.49-4.53-.64-1.09.54Z"/><path class="cls-6" d="M20.86,18.06A1.5,1.5,0,0,1,21,20l-.29.47s1.44-.64,1.1-1.58a3.87,3.87,0,0,0-.94-1.46Z"/></g></g></svg>